<?xml version="1.0" encoding="utf-8"?>
<!-- Generator: Adobe Illustrator 17.1.0, SVG Export Plug-In . SVG Version: 6.00 Build 0)  -->
<!DOCTYPE svg PUBLIC "-//W3C//DTD SVG 1.1//EN" "http://www.w3.org/Graphics/SVG/1.1/DTD/svg11.dtd">
<svg version="1.1" id="Layer_1" xmlns="http://www.w3.org/2000/svg" xmlns:xlink="http://www.w3.org/1999/xlink" x="0px" y="0px"
	 viewBox="0 62.5 216 96.5" enable-background="new 0 62.5 216 96.5" xml:space="preserve">
<g>
	<g enable-background="new    ">
		<path fill="#EE4433" d="M89,81.4V62.9h6.7v43.7H89V87.4h-6.5v19.3h-6.7V62.9h6.7v18.4H89z"/>
		<path fill="#EE4433" d="M120.9,106.6h-6.7l-0.8-6.9h-7l-0.8,6.9h-6.1l6.2-43.8h8.8L120.9,106.6z M107.2,93.8h5.4L109.9,72
			L107.2,93.8z"/>
		<path fill="#EE4433" d="M143.8,88.7v10.2c0,5.4-2.7,8.1-8.1,8.1h-3.3c-5.4,0-8.1-2.7-8.1-8.1V70.6c0-5.4,2.7-8.1,8.1-8.1h3.2
			c5.4,0,8,2.6,8,8v9H137v-8.5c0-1.8-0.8-2.6-2.5-2.6h-1.1c-1.8,0-2.6,0.8-2.6,2.6v27.6c0,1.8,0.8,2.6,2.6,2.6h1.2
			c1.7,0,2.5-0.8,2.5-2.6v-9.9h6.7V88.7z"/>
		<path fill="#EE4433" d="M161.7,106.6l-6.5-21.4v21.4h-6.7V62.9h6.7v21.1l7-21.1h7l-7.5,21.4l7.3,22.3
			C168.8,106.6,161.7,106.6,161.7,106.6z"/>
	</g>
	<g enable-background="new    ">
		<path fill="#EE4433" d="M82.7,158.7H76V115h6.7V158.7z"/>
		<path fill="#EE4433" d="M94.4,115v37.7h7.4v6H87.8V115C87.8,115,94.4,115,94.4,115z"/>
		<path fill="#EE4433" d="M112.5,115v37.7h7.4v6h-14.1V115C105.9,115,112.5,115,112.5,115z"/>
		<path fill="#EE4433" d="M130.6,158.7H124V115h6.7V158.7z"/>
		<path fill="#EE4433" d="M149.7,115h6v43.7h-7.3l-6.8-29.5l0.1,29.5h-6V115h7.8l6.2,27.2L149.7,115z"/>
		<path fill="#EE4433" d="M172.3,159h-3.5c-5.4,0-8.1-2.7-8.1-8.1v-28.2c0-5.4,2.7-8.1,8.1-8.1h3.5c5.4,0,8.1,2.7,8.1,8.1v28.2
			C180.4,156.4,177.7,159,172.3,159z M171.2,120.5h-1.4c-1.8,0-2.6,0.8-2.6,2.6v27.5c0,1.8,0.8,2.6,2.6,2.6h1.4
			c1.7,0,2.5-0.8,2.5-2.6V123C173.7,121.2,172.9,120.5,171.2,120.5z"/>
		<path fill="#EE4433" d="M192.1,158.7h-6.8V115h6.7v43.7H192.1z"/>
		<path fill="#EE4433" d="M216,143.8v7.1c0,5.4-2.7,8.1-8.1,8.1H205c-5.4,0-8-2.7-8-8v-9.3h6.5v9c0,1.7,0.8,2.5,2.6,2.5h0.8
			c1.8,0,2.6-0.8,2.6-2.5v-6c0-1.8-0.6-2.6-1.9-3.5l-6.8-4.9c-3-2.1-3.9-4.2-3.9-7.6v-6c0-5.4,2.7-8.1,8.1-8.1h2.8c5.4,0,8,2.7,8,8
			v7.9h-6.6v-7.7c0-1.7-0.8-2.5-2.5-2.5H206c-1.7,0-2.5,0.8-2.5,2.5v4.9c0,1.8,0.6,2.7,1.9,3.5l6.8,4.9
			C215.1,138.4,216,140.3,216,143.8z"/>
	</g>
	<g>
		<g>
			<g>
				<polygon fill="#EE4433" points="18.6,101.3 46.5,101.3 46.5,83.8 65.2,83.8 65.2,62.7 12.3,62.7 0,83.8 18.6,83.8 				"/>
			</g>
			<g>
				<polygon fill="#EE4433" points="46.5,120 18.6,120 18.6,137.5 0,137.4 0,158.5 53.1,158.5 65.2,137.5 46.5,137.5 				"/>
			</g>
		</g>
	</g>
</g>
</svg>
