<?xml version="1.0" encoding="utf-8"?>
<!-- Generator: Adobe Illustrator 17.1.0, SVG Export Plug-In . SVG Version: 6.00 Build 0)  -->
<!DOCTYPE svg PUBLIC "-//W3C//DTD SVG 1.1//EN" "http://www.w3.org/Graphics/SVG/1.1/DTD/svg11.dtd">
<svg version="1.1" id="Layer_1" xmlns="http://www.w3.org/2000/svg" xmlns:xlink="http://www.w3.org/1999/xlink" x="0px" y="0px"
	 viewBox="0 0 207.5 92.2" enable-background="new 0 0 207.5 92.2" xml:space="preserve">
<g>
	<g enable-background="new    ">
		<path fill="#EE4433" d="M85.5,20.5V2.8h6.4v42h-6.4V26.3h-6.2v18.5h-6.4v-42h6.4v17.7C79.3,20.5,85.5,20.5,85.5,20.5z"/>
		<path fill="#EE4433" d="M116.1,44.8h-6.4l-0.8-6.6h-6.7l-0.8,6.6h-5.9l6-42.1h8.5L116.1,44.8z M103,32.5h5.2l-2.6-21L103,32.5z"/>
		<path fill="#EE4433" d="M138.1,27.6v9.8c0,5.2-2.6,7.8-7.8,7.8h-3.2c-5.2,0-7.8-2.6-7.8-7.8V10.2c0-5.2,2.6-7.8,7.8-7.8h3.1
			c5.2,0,7.7,2.5,7.7,7.7v8.6h-6.3v-8.2c0-1.7-0.8-2.5-2.4-2.5h-1.1c-1.7,0-2.5,0.8-2.5,2.5V37c0,1.7,0.8,2.5,2.5,2.5h1.2
			c1.6,0,2.4-0.8,2.4-2.5v-9.5H138.1z"/>
		<path fill="#EE4433" d="M155.3,44.8l-6.2-20.6v20.6h-6.4v-42h6.4v20.3l6.7-20.3h6.7l-7.2,20.6l7,21.4
			C162.2,44.8,155.3,44.8,155.3,44.8z"/>
	</g>
	<g enable-background="new    ">
		<path fill="#EE4433" d="M79.4,94.8H73v-42h6.4V94.8z"/>
		<path fill="#EE4433" d="M90.7,52.8V89h7.1v5.8H84.3v-42H90.7z"/>
		<path fill="#EE4433" d="M108.1,52.8V89h7.1v5.8h-13.5v-42H108.1z"/>
		<path fill="#EE4433" d="M125.5,94.8h-6.4v-42h6.4V94.8z"/>
		<path fill="#EE4433" d="M143.8,52.8h5.8v42h-7l-6.5-28.3l0.1,28.3h-5.8v-42h7.5l6,26.1L143.8,52.8z"/>
		<path fill="#EE4433" d="M165.5,95.1h-3.4c-5.2,0-7.8-2.6-7.8-7.8V60.2c0-5.2,2.6-7.8,7.8-7.8h3.4c5.2,0,7.8,2.6,7.8,7.8v27.1
			C173.3,92.6,170.7,95.1,165.5,95.1z M164.5,58.1h-1.3c-1.7,0-2.5,0.8-2.5,2.5V87c0,1.7,0.8,2.5,2.5,2.5h1.3c1.6,0,2.4-0.8,2.4-2.5
			V60.5C166.9,58.8,166.1,58.1,164.5,58.1z"/>
		<path fill="#EE4433" d="M184.5,94.8H178v-42h6.4V94.8z"/>
		<path fill="#EE4433" d="M207.5,80.5v6.8c0,5.2-2.6,7.8-7.8,7.8h-2.8c-5.2,0-7.7-2.6-7.7-7.7v-8.9h6.2v8.6c0,1.6,0.8,2.4,2.5,2.4
			h0.8c1.7,0,2.5-0.8,2.5-2.4v-5.8c0-1.7-0.6-2.5-1.8-3.4l-6.5-4.7c-2.9-2-3.7-4-3.7-7.3v-5.8c0-5.2,2.6-7.8,7.8-7.8h2.7
			c5.2,0,7.7,2.6,7.7,7.7v7.6h-6.3v-7.4c0-1.6-0.8-2.4-2.4-2.4h-0.8c-1.6,0-2.4,0.8-2.4,2.4v4.7c0,1.7,0.6,2.6,1.8,3.4l6.5,4.7
			C206.6,75.3,207.5,77.1,207.5,80.5z"/>
	</g>
	<g>
		<g>
			<g>
				<polygon fill="#EE4433" points="17.9,39.7 44.7,39.7 44.7,22.9 62.6,22.9 62.6,2.6 11.8,2.6 0,22.9 17.9,22.9 				"/>
			</g>
			<g>
				<polygon fill="#EE4433" points="44.7,57.6 17.9,57.6 17.9,74.4 0,74.3 0,94.6 51,94.6 62.6,74.4 44.7,74.4 				"/>
			</g>
		</g>
	</g>
</g>
</svg>
